<?xml version="1.0" standalone="no"?>
<!DOCTYPE svg PUBLIC "-//W3C//DTD SVG 20010904//EN"
 "http://www.w3.org/TR/2001/REC-SVG-20010904/DTD/svg10.dtd">
<svg version="1.0" xmlns="http://www.w3.org/2000/svg"
 width="922.000000pt" height="922.000000pt" viewBox="0 0 922.000000 922.000000"
 preserveAspectRatio="xMidYMid meet">
<metadata>
Created by potrace 1.11, written by Peter Selinger 2001-2013
</metadata>
<g transform="translate(0.000000,922.000000) scale(0.100000,-0.100000)"
fill="#000000" stroke="none">
<path d="M470 8285 l0 -735 415 0 415 0 0 -1219 0 -1219 -65 -167 c-36 -91
-65 -168 -65 -171 0 -2 29 -4 65 -4 l65 0 0 -785 0 -785 903 2 902 3 3 588 2
587 335 0 335 0 0 1000 0 1000 -335 0 -335 0 0 585 0 585 1505 0 1505 0 0
-585 0 -585 -335 0 -335 0 0 -1000 0 -1000 335 0 335 0 2 -587 3 -588 903 -3
902 -2 0 1048 0 1048 60 154 c33 85 60 158 60 162 0 4 -27 8 -60 8 l-60 0 0
105 0 105 124 0 123 0 51 133 c28 72 54 140 58 150 6 16 -7 17 -175 17 l-181
0 0 710 0 710 415 0 415 0 0 735 0 735 -4145 0 -4145 0 0 -735z"/>
<path d="M1300 2601 l0 -299 287 -178 c157 -99 292 -183 300 -187 11 -7 13 76
13 478 l0 485 -300 0 -300 0 0 -299z"/>
<path d="M2512 2223 l3 -677 294 -183 c161 -101 295 -183 297 -183 2 0 4 387
4 860 l0 860 -300 0 -300 0 2 -677z"/>
<path d="M3710 1851 l0 -1049 278 -173 c152 -95 287 -179 300 -187 l22 -14 0
1236 0 1236 -300 0 -300 0 0 -1049z"/>
<path d="M4920 1664 l0 -1236 23 14 c12 8 147 92 300 187 l277 173 0 1049 0
1049 -300 0 -300 0 0 -1236z"/>
<path d="M6120 2040 c0 -473 2 -860 4 -860 2 0 136 82 297 183 l294 183 3 677
2 677 -300 0 -300 0 0 -860z"/>
<path d="M7330 2415 c0 -402 2 -485 13 -478 8 4 143 88 300 187 l287 178 0
299 0 299 -300 0 -300 0 0 -485z"/>
</g>
</svg>
